# xmcd
#
# Track frame offsets:
#	182
#	30812
#	57410
#	85765
#	100845
#	129442
#	149310
#	164005
#	184012
#	208597
#	233012
#	249080
#	267052
#	296330
#	315425
#
# Disc length: 4519
#
# Revision: 2
# Processed by: cddbd v1.5.1PL0 Copyright (c) Steve Scherf et al.
# Submitted via: CDex 1.50beta10
# Normalized: r1:DSETVAR1,TDELIM( - )
#
DISCID=bf11a50f
DTITLE=Various Artist - Mémoires d'Immigrés
DYEAR=1900
DGENRE=Rai
TTITLE0=Kiefeche Rah Kifeche A Tbedel - DAHMANE EL HARACHI
TTITLE1=Ya Rayah - DAHMANE EL HARACHI
TTITLE2=Thoura - Jarvagh Koulchi - SLIMANE AZEM
TTITLE3=Ayrib - IDIR
TTITLE4=Asaru - MALIKA DOM RAN
TTITLE5=Ayadhou Goual - SLIMANE AZEM
TTITLE6=Non, Je n'ai pas oublié - ENRICO MACIAS
TTITLE7=A Vava Inouva - IDIR
TTITLE8=Taawint Igenni - MALIKA DOM RAN
TTITLE9=Douni El Bladi - CHEB MAMI
TTITLE10=Helwa Ya Baladi - DALIDA
TTITLE11=Zaâma - RACHID TAHA
TTITLE12=Je Vis Encore - CHEB HASNI
TTITLE13=Haoulou - CHEB MAMI
TTITLE14=Voilà Voilà - RACHID TAHA
EXTD=musique tirée du documentaire Mémoires d'immigrés de yamina benguigui
EXTT0=
EXTT1=
EXTT2=
EXTT3=
EXTT4=
EXTT5=
EXTT6=
EXTT7=
EXTT8=
EXTT9=
EXTT10=
EXTT11=
EXTT12=
EXTT13=
EXTT14=
PLAYORDER=
